# xmcd
#
# Track frame offsets:
#	150
#	16108
#	34887
#	55447
#	72666
#	88975
#	104933
#	123712
#	144272
#	161491
#	189050
#
# Disc length: 2540 seconds
#
# Revision: 1
# Processed by: cddbd v1.5.2PL0 Copyright (c) Steve Scherf et al.
# Submitted via: audiograbber 1.83.01
#
DISCID=9f09ea0b
DTITLE=Priddis Various - 1521G Country Rain V.1
DYEAR=1900
DGENRE=Karaoke
TTITLE0=Randy Travis - Three Wooden Crosses
TTITLE1=Keith Urban - Raining On Sunday
TTITLE2=Tim McGraw - She's My Kind of Rain
TTITLE3=Chris Cagel - What a Beautiful Day
TTITLE4=Alan Jackson - That'd Be Alright
TTITLE5=Randy Travis - Three Wooden Crosses (Vocals)
TTITLE6=Keith Urban - Raining On Sunday (Vocals)
TTITLE7=Tim McGraw - She's My Kind of Rain (Vocals)
TTITLE8=Chris Cagel - What a Beautiful Day (Vocals)
TTITLE9=Alan Jackson - That'd Be Alright (Vocals)
TTITLE10=Data Track
EXTD=
EXTT0=
EXTT1=
EXTT2=
EXTT3=
EXTT4=
EXTT5=
EXTT6=
EXTT7=
EXTT8=
EXTT9=
EXTT10=
PLAYORDER=
